<?xml version="1.0" encoding="UTF-8"?>
<svg id="Layer_1" xmlns="http://www.w3.org/2000/svg" version="1.1" viewBox="0 0 668.05 168.43">
  <!-- Generator: Adobe Illustrator 30.5.1, SVG Export Plug-In . SVG Version: 2.1.4 Build 3)  -->
  <defs>
    <style>
      .st0 {
        fill: #a9c74a;
      }

      .st1 {
        fill: #a1498f;
      }
    </style>
  </defs>
  <path class="st1" d="M152.3,168.43l-47.15-.04-16.49-16.5c-1.8,2.78-4.22,4.98-7.01,7.05-2.98,3.62-5.89,6.97-9.94,9.5l-46.79-.04-.02-80.99-24.9-.58,32.9-32.8L75.89,11.66,86.94.9c1.54-1.5,3.07-.96,4.44.4l17.66,17.55c1.91,1.9,4.17,3.17,5.62,5.57,1.23,2.04,3.38,3.14,5.06,4.78l31.36,30.81,25.65,25.33c.87.92-2.59,1.87-3.58,1.88l-20.8.24-.04,80.96ZM88.28,77.61c2.58-1.07,3.3-2.11,4.75-3.3,5.09-4.19,11.96-6.28,18.44-5.56,12.68,1.42,22.34,10.79,23.32,23.17.69,8.71-2,15.56-7.99,21.5l-10.09,10c-1.26,1.25-1.88,1.99-3.04,3.18l-20.58,20.93,15.21,15.14,38.42-.19.1-77.09c0-1.22.09-2.06.43-2.86.97-2.3,9.75.3,16.18-1.62l-21.62-21.55L88.96,7.27l-23.56,22.96-35.57,34.78-15.91,16.01,16.57.85v77.57c0,1.85,1.32,3.14,3.08,3.13l34.44-.04c2.77,0,3.98-2.65,5.56-4.16l8.46-8.09c.83-.79,1.85-1.27,1.9-2.44s-.47-1.9-1.42-2.85l-19.94-19.84c-9.18-9.14-19.01-14.8-20.11-28.59s8.14-25.46,22.05-27.63c8.65-1.35,17.25,2.06,23.79,8.68ZM93.21,138.75l12.15-12.44,17.84-17.96c8.13-8.18,8.86-19.63.93-28.25-5.98-6.5-14.59-8.75-22.95-5.13-6.43,2.78-10.75,7.56-12.44,15.38-2.28-7.5-6.53-13.12-12.56-15.5-7.44-2.94-15.11-1.87-20.75,3-10.4,8.98-9.96,22.43-1.55,30.65l15.5,15.15,2.98,3.06,15.91,15.68c2.01,1.13,3.9-2.58,4.93-3.64Z"/>
  <path class="st0" d="M588.78,102.84l-.3,39.12c-.03,4.03,3.05,7.02,6.77,7.13l10.67.31c1.17,2.92,1.15,5.86.48,8.92-1.99.24-4.62,1.41-6.49.92-3.08-.8-5.29-.02-8.22-.02l-23.93.06-12.47-.96c-2.05-1.12-2.09-7.57,0-8.53l12.19-1.58c3.2-.41,3.98-3.7,3.98-7.02l.05-54.14c0-8.19-7.66-7.83-16.21-8.46-2.19-1.41-1.76-6.32-.43-8.78l30.49-.24c5.3-.04,1.54,7.21,3.98,12.72,7.21-9.09,16.35-13.97,27.23-14.85,8.43-.68,16.87.22,23.88,5.28,6.91,4.98,10.68,14.23,10.74,22.25l.37,46.16c.02,2.64,1.31,5.87,3.55,6.83,3.97,1.69,7.83,1.17,12.04,1.54,1.21,2.78,1.06,6.42.29,8.98-6.98,2.18-13.7.17-20.65.31-7.36.16-14.19,1.45-21.56-.18l-7.83-.3c-1.3-1.52-1.29-6.41.06-7.99,1.44-1.69,4.01-1.11,6.45-.95,3.31.21,10.6-1.35,10.63-5.96l.34-46.79c.02-2.77-1.43-5.81-2.15-8.26-3.91-13.37-22.75-12.64-31.23-6.79-7.02,4.84-12.67,12.01-12.74,21.24Z"/>
  <path class="st0" d="M329.38,160.33c-16.6,5.5-36.71.34-40.17-16.83-5.22-25.92,22.55-30.3,44.21-36.45,5.24-1.49,10.82-3.01,14.09-7.65.68-1.3,1.53-4.56,1.63-6.14.52-8.15-5.59-14.71-13.2-16.91-9.63-2.77-19.84-.46-27.74,5.53.81,2.34,2.88,2.18,4.12,3.18,4.88,3.92,4.43,11.53-.88,15.26-2.99,2.1-8,2.5-11.48.82-1.71-.82-4.47-3.09-5.2-4.91-3.58-8.9.67-17.97,9.22-22.99,14.81-8.7,33.8-9.1,49.69-1.36,6.44,3.13,11.18,12.31,11.23,20.01l.36,53.95c.01,1.92,1.1,3.6,1.99,4.41,1.2,1.08,3.58,1.36,5.07.7,3.97-1.77,5.34-5.34,5.57-9.3l.72-12.59c2.91-.75,5.51-.8,8.73-.03.54,9.43.27,20.02-5.72,27.58-4.39,5.54-12.4,6.91-18.83,5.3s-11.21-6.26-13.18-13.43l-10.67,7.82c-2.99,2.19-6.02,2.87-9.57,4.04ZM320.26,151.1c14.29.92,26.08-8,28.04-22.1l.26-15.57c.02-1.07-1.4-2.06-2.33-1.62-7.28,3.39-14.35,6.02-22.1,8.34-4.75,1.43-9.93,3.75-13.34,7.02-4.56,4.37-5.51,10.33-3.45,15.56s6.45,7.95,12.92,8.37Z"/>
  <path class="st0" d="M225.23,147.29c13.33,8.83,36.38,3.09,41.67-15.22.96-3.32,6.48-3.31,11.51-2.09,1.96,1.78-.41,5.36-.88,7.19-1.48,5.71-4.27,9.42-8.01,13.69-9.87,11.29-28.15,13.46-43.32,9.86-6.7-1.59-11.98-4.59-17.31-9.16-13.51-11.58-16.7-30.08-14.1-47.88,1.69-11.56,7.56-22.42,17.58-29.5,15.01-10.61,41.44-10.95,56.06,2.23,7.57,6.83,11.46,16.6,12.88,26.63.65,4.54,1.62,8.37.56,13.13l-13.57-.12c-2.8-.03-4.9.08-7.6.1l-47.69.24c-1.4,8.34,1.73,19.76,6.31,25.8,1.38,1.81,3.98,3.82,5.93,5.11ZM262.88,106.13c1.96-11.53-2.76-23.66-13.36-28.3-10.09-4.41-22.36-2.34-29.44,5.82-5.3,6.11-7.35,14.28-7.06,22.4l49.86.08Z"/>
  <path class="st0" d="M544.18,142.79c-9.14,13.11-23.89,19.03-39.34,19.15-11.05.08-22.29-2.01-31.03-8.82-3.61-2.81-7.29-6.18-10-9.91-9.36-12.92-10.92-29.6-6.5-44.99,7.39-25.73,36.86-37.32,63.42-29.25l6.91,2.74c4.29,1.7,8.06,4.86,11.59,8.26,15.82,15.23,18.03,44.07,4.95,62.82ZM525.41,144.01c6.42-6.4,7.85-14.94,8.59-23.1,2.2-19.92-3.67-40.81-24.25-44.52-19.18-3.46-34.47,9.34-35.77,27.45-1.12,15.7-1.51,33.58,11.68,43.09,11.81,8.51,29.16,7.63,39.74-2.91Z"/>
  <path class="st0" d="M446.06,122.84c2.94,1.52.49,16.74-2.05,24.51-4.28,13.13-18.47,17.72-31.19,13.41-8.72-2.96-13.59-9.79-13.61-18.99l-.1-61.96-15.08-.32c-.61-3.23-.51-6.38,0-9.72,16.6-1.17,21.33-18.8,22.47-34.77,2.93-.74,5.65-.67,8.78-.02l.33,34.4,25.81.91c2.91.1,2.5,7.7.07,9.06l-26.03.58.2,62.61c.02,6.27,6.4,9.45,11.42,8.22,6.25-1.52,8.96-5.87,9.69-11.67.68-5.39,2.01-10.35,1.09-16.2,2.64-.89,5.72-1.33,8.2-.05Z"/>
</svg>