<?xml version="1.0" encoding="UTF-8"?>
<svg id="Layer_1" xmlns="http://www.w3.org/2000/svg" version="1.1" viewBox="0 0 481.37 458.44">
  <!-- Generator: Adobe Illustrator 30.5.1, SVG Export Plug-In . SVG Version: 2.1.4 Build 3)  -->
  <defs>
    <style>
      .st0 {
        fill: #a1498f;
      }
    </style>
  </defs>
  <path class="st0" d="M414.52,458.42l-128.33-.11-44.89-44.9c-4.91,7.58-11.48,13.54-19.08,19.18-8.1,9.85-16.04,18.98-27.06,25.85l-127.35-.12-.05-220.43-67.77-1.58,89.54-89.26L206.56,31.72l30.07-29.27c4.2-4.09,8.35-2.63,12.08,1.08l48.05,47.77c5.21,5.17,11.36,8.63,15.3,15.16,3.36,5.56,9.2,8.54,13.77,13.02l85.34,83.86,69.82,68.95c2.36,2.51-7.06,5.08-9.75,5.11l-56.6.66-.11,220.34ZM240.28,211.24c7.01-2.91,8.98-5.74,12.94-8.99,13.86-11.39,32.55-17.11,50.19-15.12,34.5,3.88,60.81,29.36,63.47,63.06,1.87,23.7-5.45,42.36-21.74,58.51l-27.45,27.23c-3.43,3.41-5.12,5.42-8.29,8.65l-56.02,56.96,41.39,41.22,104.58-.51.27-209.83c0-3.31.25-5.6,1.18-7.79,2.65-6.26,26.54.83,44.03-4.41l-58.84-58.65L242.12,19.8l-64.13,62.5-96.81,94.66-43.3,43.57,45.09,2.31v211.12c-.01,5.03,3.6,8.53,8.38,8.53l93.74-.12c7.53,0,10.82-7.22,15.12-11.33l23.04-22.02c2.25-2.15,5.05-3.46,5.16-6.63.11-3.18-1.29-5.18-3.87-7.75l-54.27-54.01c-24.99-24.87-51.73-40.28-54.73-77.82-3.05-38.06,22.16-69.29,60.01-75.21,23.54-3.68,46.96,5.59,64.74,23.63ZM253.71,377.65l33.07-33.86,48.57-48.89c22.13-22.28,24.11-53.42,2.53-76.89-16.27-17.7-39.7-23.81-62.46-13.96-17.51,7.57-29.27,20.58-33.85,41.86-6.2-20.43-17.77-35.71-34.2-42.2-20.26-7.99-41.13-5.1-56.49,8.16-28.32,24.44-27.12,61.04-4.22,83.43l42.19,41.25,8.11,8.34,43.32,42.67c5.47,3.09,10.62-7.02,13.43-9.9Z"/>
</svg>